<svg viewBox="0 0 32 32" fill="none" xmlns="http://www.w3.org/2000/svg">
  <path
    d="M32 16C32 7.16344 24.8365 0 16 0C7.16346 0 0 7.16344 0 16C0 23.5036 5.16576 29.7998 12.1348 31.5288V20.8893H8.83546V16H12.1348V13.8932C12.1348 8.44728 14.5993 5.92313 19.9459 5.92313C20.9595 5.92313 22.7085 6.12185 23.4241 6.32063V10.7529C23.0464 10.7131 22.3905 10.6932 21.5756 10.6932C18.9521 10.6932 17.9384 11.687 17.9384 14.2708V16H23.1645L22.2668 20.8893H17.9384V31.8828C25.8607 30.9259 32 24.1803 32 16Z"
    fill="#0866FF" />
  <path
    d="M22.2653 20.8881L23.1631 15.9988H17.937V14.2696C17.937 11.6858 18.9506 10.692 21.5741 10.692C22.3891 10.692 23.0449 10.7119 23.4226 10.7516V6.31944C22.7071 6.12066 20.958 5.92188 19.9444 5.92188C14.5979 5.92188 12.1333 8.44609 12.1333 13.892V15.9988H8.83398V20.8881H12.1333V31.5276C13.3713 31.8347 14.6657 31.9988 15.9985 31.9988C16.6548 31.9988 17.3014 31.9583 17.937 31.8816V20.8881H22.2653Z"
    fill="white" />
</svg>
