<svg viewBox="0 0 32 32" fill="none" xmlns="http://www.w3.org/2000/svg">
  <path
    d="M25.4815 32H6.51853C2.9184 32 0 29.0815 0 25.4815V6.51853C0 2.91846 2.9184 0 6.51853 0H25.4815C29.0815 0 32 2.91846 32 6.51853V25.4815C32 29.0815 29.0815 32 25.4815 32Z"
    fill="#00A4DE" />
  <path
    d="M14.3311 20.2943C13.9438 20.5322 13.2763 20.649 12.3399 20.649H10.9544V17.4712H12.3997C13.3615 17.4712 14.0262 17.5921 14.3798 17.8338C14.7392 18.0756 14.916 18.5025 14.916 19.1154C14.916 19.6639 14.7222 20.0578 14.3311 20.2943ZM10.9544 11.9532H11.8057C12.7896 11.9532 13.4506 12.0643 13.7917 12.2853C14.1283 12.5076 14.2999 12.891 14.2999 13.4375C14.2999 13.9632 14.1172 14.3336 13.756 14.5507C13.39 14.7638 12.7226 14.8717 11.7459 14.8717H10.9544V11.9532ZM17.8014 16.5198C17.2217 15.8719 16.4159 15.5079 15.3819 15.4293C16.3016 15.1785 16.9695 14.8119 17.392 14.3219C17.8125 13.8385 18.0211 13.1821 18.0211 12.3562C18.0211 11.7023 17.8781 11.1238 17.6012 10.6242C17.3173 10.1276 16.9091 9.72992 16.373 9.43239C15.9037 9.17434 15.3462 8.99239 14.6963 8.88506C14.0432 8.78106 12.9 8.72852 11.2598 8.72852H7.27148V23.2739H11.3807C13.0314 23.2739 14.2219 23.2161 14.9498 23.1056C15.6769 22.9912 16.2872 22.7989 16.7811 22.5351C17.392 22.2127 17.8579 21.7539 18.1835 21.1645C18.5111 20.5731 18.6735 19.8913 18.6735 19.1114C18.6735 18.0328 18.383 17.1658 17.8014 16.5198Z"
    fill="white" />
  <path
    d="M22.8864 19.5879C21.8684 19.5879 21.0437 20.412 21.0437 21.43C21.0437 22.4481 21.8684 23.2728 22.8864 23.2728C23.9032 23.2728 24.7285 22.4481 24.7285 21.43C24.7285 20.412 23.9032 19.5879 22.8864 19.5879Z"
    fill="white" />
  <path d="M21.2863 8.72852H24.4863V18.4255H21.2863V8.72852Z" fill="white" />
</svg>
