<svg viewBox="0 0 32 32" fill="none" xmlns="http://www.w3.org/2000/svg">
  <g clip-path="url(#clip0_681_3060)">
    <path
      d="M24.7859 32H7.214C3.2297 32 0 28.7701 0 24.7859V7.2141C0 3.2299 3.2297 0 7.214 0H24.7859C28.7702 0 32 3.2299 32 7.2141V24.7859C32 28.7701 28.7702 32 24.7859 32Z"
      fill="#06C755" />
    <path
      d="M26.6658 14.492C26.6658 9.71798 21.8799 5.83398 15.997 5.83398C10.1145 5.83398 5.32812 9.71798 5.32812 14.492C5.32812 18.7718 9.12362 22.3562 14.2507 23.0337C14.598 23.1088 15.071 23.2629 15.1905 23.5599C15.2981 23.8295 15.2609 24.2521 15.2251 24.5245C15.2251 24.5245 15.0999 25.2774 15.0727 25.4379C15.0262 25.7074 14.8583 26.4928 15.997 26.0131C17.1356 25.5332 22.141 22.3951 24.3794 19.819H24.3789C25.925 18.1233 26.6658 16.4025 26.6658 14.492Z"
      fill="white" />
    <path
      d="M23.1152 17.249H20.1178C20.0053 17.249 19.9141 17.1579 19.9141 17.0453V12.3892C19.9141 12.2767 20.0053 12.1855 20.1178 12.1855H23.1152C23.2272 12.1855 23.3189 12.2771 23.3189 12.3892V13.1458C23.3189 13.2583 23.2277 13.3495 23.1152 13.3495H21.0782V14.1352H23.1152C23.2272 14.1352 23.3189 14.2269 23.3189 14.3389V15.0956C23.3189 15.2081 23.2277 15.2993 23.1152 15.2993H21.0782V16.085H23.1152C23.2272 16.085 23.3189 16.1766 23.3189 16.2886V17.0453C23.3189 17.1579 23.2277 17.249 23.1152 17.249Z"
      fill="#06C755" />
    <path
      d="M12.0292 17.249C12.1417 17.249 12.2329 17.1579 12.2329 17.0453V16.2886C12.2329 16.1766 12.1412 16.085 12.0292 16.085H9.99213V12.3892C9.99213 12.2771 9.90053 12.1855 9.78853 12.1855H9.03183C8.91933 12.1855 8.82812 12.2767 8.82812 12.3892V17.0453C8.82812 17.1579 8.91933 17.249 9.03183 17.249H12.0292Z"
      fill="#06C755" />
    <path
      d="M13.8333 12.1855H13.0768C12.9643 12.1855 12.873 12.2768 12.873 12.3892V17.0454C12.873 17.1579 12.9643 17.2491 13.0768 17.2491H13.8333C13.9459 17.2491 14.037 17.1579 14.037 17.0454V12.3892C14.037 12.2768 13.9459 12.1855 13.8333 12.1855Z"
      fill="#06C755" />
    <path
      d="M18.9833 12.1855H18.2267C18.1142 12.1855 18.023 12.2768 18.023 12.3892V15.1547L15.8927 12.2778C15.8877 12.2704 15.8821 12.2634 15.8763 12.2568C15.8759 12.2563 15.8755 12.2558 15.875 12.2553C15.8711 12.2509 15.867 12.2466 15.8627 12.2426L15.8589 12.2391C15.8553 12.2359 15.8517 12.2328 15.8479 12.2297L15.8423 12.2256C15.8389 12.2231 15.8353 12.2207 15.8315 12.2182C15.8295 12.2169 15.8274 12.2157 15.8253 12.2145C15.8216 12.2123 15.8179 12.2102 15.8141 12.2083C15.8119 12.2072 15.8098 12.2061 15.8076 12.2051C15.8037 12.2033 15.7997 12.2016 15.7957 12.2C15.7935 12.1992 15.7913 12.1984 15.7891 12.1976C15.785 12.1961 15.7809 12.1948 15.7767 12.1936C15.7743 12.1929 15.7719 12.1923 15.7694 12.1917C15.7654 12.1908 15.7614 12.1899 15.7573 12.1891C15.7545 12.1886 15.7516 12.1882 15.7487 12.1877C15.745 12.1873 15.7414 12.1868 15.7377 12.1865C15.7341 12.1861 15.7305 12.186 15.7269 12.1859C15.7245 12.1858 15.7222 12.1855 15.7198 12.1855H14.9674C14.8549 12.1855 14.7637 12.2768 14.7637 12.3892V17.0454C14.7637 17.1579 14.8549 17.2491 14.9674 17.2491H15.724C15.8365 17.2491 15.9277 17.1579 15.9277 17.0454V14.2808L18.0607 17.1613C18.0754 17.1821 18.0934 17.1991 18.1133 17.2126C18.1141 17.2131 18.1148 17.2137 18.1156 17.2142C18.1197 17.217 18.1241 17.2196 18.1284 17.222C18.1304 17.2231 18.1323 17.2243 18.1344 17.2252C18.1376 17.227 18.1408 17.2286 18.1442 17.23C18.1476 17.2316 18.1508 17.233 18.1542 17.2343C18.1563 17.2352 18.1585 17.236 18.1606 17.2367C18.1652 17.2383 18.1699 17.2399 18.1747 17.2412C18.1757 17.2415 18.1767 17.2418 18.1776 17.2419C18.1946 17.2464 18.2124 17.2491 18.2309 17.2491H18.9833C19.0958 17.2491 19.187 17.1579 19.187 17.0454V12.3892C19.187 12.2768 19.0958 12.1855 18.9833 12.1855Z"
      fill="#06C755" />
  </g>
  <defs>
    <clipPath id="clip0_681_3060">
      <rect width="32" height="32" fill="white" />
    </clipPath>
  </defs>
</svg>
