<svg viewBox="0 0 32 32" fill="none" xmlns="http://www.w3.org/2000/svg">
  <path
    d="M32 16.0605C32 24.8949 24.8365 32.0566 16 32.0566C7.16346 32.0566 0 24.8949 0 16.0605C0 7.22616 7.16346 0.0644531 16 0.0644531C24.8365 0.0644531 32 7.22616 32 16.0605Z"
    fill="white" />
  <path
    d="M10.06 30.9091C9.86003 29.0895 10 27.3499 10.4 25.6703L12 18.7721C11.74 17.9323 11.54 16.9725 11.54 16.0127C11.54 13.7733 12.62 12.1737 14.32 12.1737C15.5 12.1737 16.3601 12.9935 16.3601 14.5731C16.3601 15.073 16.26 15.6328 16.06 16.2726L15.36 18.5721C15.22 19.012 15.16 19.4319 15.16 19.7918C15.16 21.3915 16.38 22.2912 17.94 22.2912C20.72 22.2912 22.7 19.4119 22.7 15.6728C22.7 11.5139 19.98 8.85442 15.96 8.85442C11.48 8.85442 8.64 11.7738 8.64 15.8328C8.64 17.4724 9.14003 18.992 10.12 20.0318C9.8 20.5716 9.46003 20.6716 8.94003 20.6716C7.34003 20.6716 5.81997 18.4121 5.81997 15.3329C5.81997 10.0142 10.08 5.77531 16.06 5.77531C22.34 5.77531 26.28 10.1542 26.28 15.5528C26.28 20.9915 22.44 25.0706 18.3 25.0706C16.66 25.0706 15.22 24.3707 14.22 23.111L13.4 26.4302C12.96 28.1497 12.3 29.7693 11.24 31.3289C12.74 31.7889 14.22 32.0488 16 32.0488C24.84 32.0488 32 24.8906 32 16.0527C32 7.21489 24.84 0.0566406 16 0.0566406C7.16 0.0566406 0 7.21489 0 16.0527C0 22.7511 4.12 28.5296 10.06 30.9091Z"
    fill="#E61D27" />
</svg>
