<svg viewBox="0 0 32 32" fill="none" xmlns="http://www.w3.org/2000/svg">
  <g clip-path="url(#clip0_864_196)">
    <path
      d="M9.62123 13.611C9.62123 13.9552 9.65831 14.2341 9.72299 14.4387C9.8051 14.6689 9.90397 14.8927 10.0188 15.1082C10.065 15.1826 10.0835 15.257 10.0835 15.3222C10.0835 15.4151 10.0281 15.5081 9.90786 15.6011L9.32543 15.9917C9.24221 16.0475 9.15899 16.0754 9.08493 16.0754C8.99255 16.0754 8.90006 16.0288 8.80757 15.9451C8.68302 15.8105 8.57158 15.6641 8.47481 15.5081C8.38232 15.3501 8.28982 15.1733 8.18817 14.9595C7.46701 15.8149 6.56087 16.2428 5.46996 16.2428C4.6934 16.2428 4.07389 16.0195 3.62082 15.5733C3.16785 15.1268 2.93674 14.5316 2.93674 13.7878C2.93674 12.9974 3.2141 12.3557 3.77809 11.8722C4.34198 11.3886 5.09095 11.1468 6.04323 11.1468C6.35757 11.1468 6.68117 11.1747 7.02321 11.2212C7.36536 11.2677 7.71667 11.3421 8.08652 11.4258V10.7469C8.08652 10.0401 7.93851 9.54736 7.65188 9.25906C7.35609 8.97077 6.85677 8.83123 6.14488 8.83123C5.82127 8.83123 5.48851 8.86853 5.14636 8.95223C4.80432 9.03582 4.47144 9.13817 4.14783 9.26839C3.99994 9.33344 3.88902 9.37063 3.82423 9.38928C3.75955 9.40793 3.71331 9.41714 3.67633 9.41714C3.54687 9.41714 3.48219 9.32412 3.48219 9.12885V8.67315C3.48219 8.52439 3.50073 8.41283 3.54687 8.34777C3.59311 8.28261 3.67633 8.21756 3.8058 8.15251C4.1294 7.9851 4.51769 7.84556 4.97065 7.734C5.42383 7.6131 5.9046 7.55738 6.41308 7.55738C7.51337 7.55738 8.31775 7.80837 8.8355 8.31059C9.34397 8.81269 9.6029 9.57522 9.6029 10.5982V13.611H9.62144H9.62123ZM5.86752 15.0245C6.17269 15.0245 6.48703 14.9688 6.8198 14.8571C7.15268 14.7456 7.44858 14.541 7.69813 14.262C7.84613 14.0854 7.95706 13.8901 8.01246 13.6669C8.06798 13.4437 8.10495 13.174 8.10495 12.8578V12.4673C7.82457 12.3986 7.54058 12.3459 7.25433 12.3092C6.96608 12.2724 6.67583 12.2537 6.38527 12.2534C5.76576 12.2534 5.3128 12.3743 5.00773 12.6254C4.70256 12.8765 4.55466 13.2298 4.55466 13.6947C4.55466 14.1318 4.66558 14.4573 4.8967 14.6805C5.11865 14.913 5.44226 15.0245 5.86752 15.0245ZM13.2917 16.0288C13.1253 16.0288 13.0143 16.001 12.9404 15.9358C12.8665 15.8801 12.8017 15.7499 12.7463 15.5733L10.5736 8.38496C10.518 8.19891 10.4903 8.07802 10.4903 8.01297C10.4903 7.86421 10.5642 7.7804 10.7122 7.7804H11.6183C11.7939 7.7804 11.9142 7.80837 11.9789 7.87343C12.0528 7.92926 12.1083 8.05948 12.1637 8.2361L13.717 14.3922L15.1593 8.2361C15.2055 8.05015 15.2611 7.92926 15.3349 7.87343C15.409 7.8177 15.5384 7.78051 15.7049 7.78051H16.4444C16.6201 7.78051 16.7404 7.80837 16.8142 7.87343C16.8883 7.92926 16.9529 8.05948 16.9899 8.2361L18.4508 14.4666L20.0501 8.2361C20.1056 8.05015 20.1703 7.92926 20.235 7.87343C20.309 7.8177 20.4292 7.78051 20.5956 7.78051H21.4554C21.6034 7.78051 21.6866 7.85489 21.6866 8.01297C21.6866 8.05948 21.6773 8.10599 21.6681 8.16172C21.6588 8.21756 21.6404 8.29194 21.6034 8.39429L19.3751 15.5825C19.3197 15.7685 19.255 15.8894 19.181 15.9451C19.107 16.001 18.9868 16.0382 18.8298 16.0382H18.0347C17.859 16.0382 17.7388 16.0103 17.6647 15.9451C17.5908 15.8801 17.5261 15.7592 17.4891 15.5733L16.0559 9.57522L14.6322 15.5638C14.586 15.7499 14.5305 15.8708 14.4566 15.9358C14.3826 16.001 14.2532 16.0288 14.0868 16.0288H13.2916H13.2917ZM25.1722 16.28C24.6915 16.28 24.2107 16.2241 23.7484 16.1125C23.2861 16.001 22.9256 15.88 22.6852 15.7407C22.5372 15.6568 22.4355 15.5639 22.3986 15.4802C22.3626 15.3981 22.3437 15.3095 22.3431 15.2198V14.7456C22.3431 14.5503 22.417 14.4573 22.5558 14.4573C22.6124 14.4575 22.6686 14.4669 22.7222 14.4852C22.7776 14.5039 22.8608 14.541 22.9533 14.5782C23.2799 14.7226 23.6208 14.8317 23.9703 14.9036C24.3324 14.9776 24.701 15.0149 25.0706 15.0152C25.653 15.0152 26.1061 14.913 26.4204 14.7084C26.7347 14.5038 26.9012 14.2063 26.9012 13.8249C26.9012 13.5646 26.818 13.3507 26.6515 13.174C26.4851 12.9974 26.1708 12.8393 25.7178 12.6904L24.3771 12.272C23.7022 12.0581 23.203 11.7419 22.8978 11.3234C22.5928 10.9142 22.4356 10.4586 22.4356 9.97509C22.4356 9.58455 22.5188 9.24041 22.6852 8.9428C22.8516 8.64528 23.0735 8.38496 23.3509 8.18037C23.6283 7.96645 23.9426 7.80837 24.3124 7.69681C24.6822 7.58524 25.0705 7.53873 25.4773 7.53873C25.6807 7.53873 25.8934 7.54805 26.0968 7.57592C26.3095 7.60378 26.5036 7.64097 26.6978 7.67816C26.8826 7.72467 27.0584 7.77118 27.2248 7.82702C27.3912 7.88275 27.5206 7.93859 27.6131 7.99432C27.7425 8.0688 27.8349 8.14318 27.8904 8.22688C27.946 8.30126 27.9737 8.4035 27.9737 8.53372V8.97077C27.9737 9.16604 27.8997 9.26839 27.761 9.26839C27.687 9.26839 27.5668 9.23109 27.4098 9.15671C26.8826 8.91493 26.2909 8.79404 25.6346 8.79404C25.1076 8.79404 24.6915 8.87774 24.4048 9.05447C24.1183 9.23109 23.9703 9.50085 23.9703 9.88206C23.9703 10.1425 24.0628 10.3656 24.2477 10.5424C24.4326 10.719 24.7747 10.8957 25.2647 11.0538L26.5776 11.4723C27.2432 11.6862 27.724 11.9837 28.0106 12.3649C28.2973 12.7463 28.436 13.1833 28.436 13.6669C28.436 14.0667 28.3527 14.4294 28.1955 14.7456C28.0292 15.0617 27.8072 15.3407 27.5206 15.5639C27.234 15.7964 26.8919 15.9638 26.4944 16.0847C26.0783 16.2149 25.6437 16.28 25.1722 16.28V16.28Z"
      fill="#252F3E" />
    <path
      d="M26.9196 20.7993C23.8779 23.0591 19.4584 24.2586 15.6586 24.2586C10.3331 24.2586 5.53474 22.2779 1.9105 18.986C1.62387 18.7256 1.88269 18.3723 2.22473 18.5768C6.14487 20.8645 10.9803 22.25 15.9822 22.25C19.3568 22.25 23.0643 21.5433 26.4759 20.0926C26.9844 19.8601 27.4189 20.4274 26.9196 20.7993V20.7993ZM28.1863 19.3486C27.798 18.8465 25.616 19.1069 24.6268 19.2277C24.3309 19.265 24.2846 19.0046 24.5528 18.8093C26.2909 17.5818 29.1479 17.9352 29.4806 18.3443C29.8135 18.7628 29.3882 21.6362 27.761 23.0126C27.5114 23.2265 27.271 23.1149 27.382 22.8359C27.7517 21.9152 28.5746 19.8415 28.1863 19.3486V19.3486Z"
      fill="#FF9900" />
  </g>
  <defs>
    <clipPath id="clip0_864_196">
      <rect width="27.9216" height="16.7843" fill="white" transform="translate(1.72549 7.52941)" />
    </clipPath>
  </defs>
</svg>
