<svg viewBox="0 0 32 32" fill="none" xmlns="http://www.w3.org/2000/svg">
  <path
    d="M12.6633 16C12.6625 15.594 12.7431 15.1918 12.9003 14.8165C13.0576 14.4412 13.2885 14.1002 13.5797 13.8128C13.871 13.5255 14.217 13.2976 14.5978 13.1421C14.9786 12.9867 15.3869 12.9067 15.7991 12.9068C17.5316 12.9068 18.9449 14.2986 18.9449 16C18.9449 17.7014 17.5316 19.0932 15.7991 19.0932C14.9675 19.0904 14.1707 18.7635 13.5831 18.1838C12.9955 17.6042 12.6648 16.8191 12.6633 16V16ZM15.7999 3C9.63881 3 4.47759 7.16 3.01238 12.7752C3 12.8174 3 12.8524 3 12.9076C3 13.2456 3.27968 13.5341 3.63113 13.5341H8.95076C9.07131 13.5359 9.18969 13.5023 9.29068 13.4374C9.39167 13.3726 9.47067 13.2795 9.51754 13.1701C10.6173 10.8301 13.0156 9.19206 15.8041 9.19206C19.6156 9.19206 22.7176 12.2471 22.7176 16.0049C22.7176 19.7627 19.6156 22.8177 15.7999 22.8177C13.0156 22.8177 10.6148 21.1927 9.51754 18.8397C9.41111 18.6325 9.19991 18.4757 8.95076 18.4757H3.63113C3.54816 18.4754 3.46594 18.4912 3.38922 18.5223C3.3125 18.5535 3.2428 18.5992 3.18413 18.657C3.12546 18.7148 3.07898 18.7835 3.04738 18.859C3.01578 18.9346 2.99968 19.0155 3 19.0973C3 19.1395 3.0165 19.1785 3.0165 19.2281C4.46934 24.84 9.63881 29 15.7999 29C23.0872 29 29 23.1768 29 16C29 8.82725 23.0872 3 15.7999 3V3Z"
    fill="black" />
</svg>
