<svg viewBox="0 0 32 32" fill="none" xmlns="http://www.w3.org/2000/svg">
  <g clip-path="url(#clip0_864_198)">
    <path
      d="M20.6213 11.068L23.0552 8.69151L23.2174 7.69083C18.7822 3.75294 11.7318 4.19945 7.73345 8.62252C6.62296 9.85099 5.79904 11.3826 5.35968 12.9641L6.2314 12.8442L11.0991 12.0603L11.4749 11.6851C13.6402 9.36315 17.3014 9.05077 19.8014 11.0264L20.6213 11.068V11.068Z"
      fill="#EA4335" />
    <path
      d="M26.5224 12.8942C25.963 10.8826 24.8144 9.07415 23.2174 7.69083L19.8014 11.0263C20.5134 11.5943 21.0839 12.3127 21.47 13.1274C21.8561 13.9421 22.0478 14.8317 22.0304 15.7293V16.3213C23.7093 16.3213 25.0707 17.6504 25.0707 19.2899C25.0707 20.9294 23.7094 22.2251 22.0304 22.2251H15.9414L15.3435 22.8589V26.4195L15.9414 26.9781H22.0303C26.3976 27.0113 29.9658 23.6147 29.9998 19.3503C30.0099 18.0777 29.6978 16.8224 29.0911 15.696C28.4844 14.5696 27.602 13.6072 26.5224 12.8942"
      fill="#4285F4" />
    <path
      d="M9.86077 26.9782H15.9413V22.2251H9.86077C9.43034 22.2251 9.00502 22.1341 8.61401 21.9584L7.75137 22.2168L5.30038 24.5934L5.08688 25.4022C6.4614 26.4156 8.13845 26.9855 9.86077 26.9782Z"
      fill="#34A853" />
    <path
      d="M9.86078 11.56C5.49344 11.5855 1.97408 15.0632 2.00011 19.3277C2.00729 20.5028 2.28908 21.6608 2.82401 22.7135C3.35893 23.7662 4.13288 24.6858 5.08689 25.4022L8.61402 21.9585C7.08386 21.2833 6.40377 19.525 7.09513 18.0309C7.78638 16.5369 9.58734 15.8728 11.1174 16.5478C11.7917 16.8452 12.3317 17.3726 12.6363 18.0309L16.1634 14.587C15.4231 13.642 14.469 12.877 13.3756 12.3519C12.2822 11.8267 11.0793 11.5557 9.86078 11.56"
      fill="#FBBC05" />
  </g>
  <defs>
    <clipPath id="clip0_864_198">
      <rect width="28" height="22" fill="white" transform="translate(2 5)" />
    </clipPath>
  </defs>
</svg>
