<svg viewBox="0 0 32 32" fill="none" xmlns="http://www.w3.org/2000/svg">
  <g clip-path="url(#clip0_864_208)">
    <path
      d="M4.07494 16.641V13.3657H4.79969V16.8913C4.83336 17.1754 4.80857 17.4633 4.72681 17.7378C4.64504 18.0122 4.50797 18.2677 4.32376 18.4889C3.98135 18.7798 3.54258 18.937 3.09039 18.931L3.01472 18.3985C3.30634 18.3987 3.58766 18.2924 3.80437 18.1003C3.99907 17.8766 4.07483 17.573 4.07483 16.6411L4.07494 16.641ZM9.48009 16.2209C9.48009 16.6203 9.48009 16.9771 9.51259 17.286H8.86889L8.82562 16.6523C8.69098 16.8765 8.49845 17.0616 8.2676 17.1888C8.03675 17.316 7.77581 17.3808 7.5113 17.3765C6.88385 17.3765 6.13747 17.041 6.13747 15.6724V13.3984H6.86222V15.5286C6.86222 16.2688 7.09479 16.7641 7.74926 16.7641C7.88391 16.7655 8.01749 16.7405 8.14217 16.6904C8.26685 16.6403 8.38011 16.5662 8.47533 16.4725C8.57054 16.3787 8.64578 16.2672 8.69664 16.1445C8.7475 16.0217 8.77294 15.8902 8.77149 15.7576V13.3717H9.49624V16.1996L9.47999 16.2209H9.48009ZM10.8539 14.6654C10.8539 14.1701 10.8539 13.7654 10.8214 13.3979H11.4704L11.5029 14.0636C11.6475 13.8231 11.8557 13.6257 12.1053 13.4926C12.3548 13.3594 12.6364 13.2954 12.92 13.3074C13.8828 13.3074 14.6076 14.1009 14.6076 15.2831C14.6076 16.6784 13.7368 17.3708 12.7957 17.3708C12.5548 17.3814 12.3152 17.3306 12.1001 17.2233C11.885 17.116 11.7016 16.9558 11.5678 16.7583V18.8885H10.8538V14.6654H10.8539ZM11.5679 15.7039C11.5698 15.8005 11.5807 15.8967 11.6003 15.9914C11.6617 16.2279 11.8013 16.4374 11.9973 16.587C12.1932 16.7365 12.4342 16.8174 12.6821 16.8169C13.4447 16.8169 13.8937 16.2045 13.8937 15.3151C13.8937 14.5376 13.4717 13.8719 12.7091 13.8719C12.4073 13.8962 12.1248 14.0281 11.9147 14.2428C11.7046 14.4575 11.5813 14.7403 11.5678 15.0382V15.7039H11.5679ZM15.8989 13.3944L16.7697 15.6897C16.8629 15.9515 16.9477 16.2161 17.0239 16.4832C17.0996 16.2488 17.1808 15.9506 17.2782 15.6737L18.0678 13.3944H18.8304L17.7487 16.1636C17.2078 17.495 16.8779 18.182 16.3802 18.5974C16.1296 18.8228 15.824 18.9806 15.4932 19.0554L15.3148 18.4589C15.546 18.3841 15.7608 18.2666 15.9475 18.1128C16.2114 17.9011 16.4208 17.631 16.5588 17.3246C16.5882 17.2716 16.6084 17.2139 16.6182 17.1542C16.6121 17.0899 16.5956 17.027 16.5696 16.9678L15.0984 13.3838H15.8881L15.8989 13.3944V13.3944ZM20.7545 12.2771V13.3954H21.793V13.928H20.7545V16.0263C20.7545 16.5056 20.8951 16.7825 21.2954 16.7825C21.4376 16.7848 21.5793 16.7687 21.7173 16.7345L21.7498 17.2671C21.543 17.3376 21.3248 17.3701 21.106 17.363C20.9612 17.3719 20.8161 17.3499 20.6808 17.2984C20.5454 17.2469 20.4229 17.1672 20.3218 17.0647C20.1015 16.7746 20.0009 16.4131 20.0405 16.0529V13.9227H19.424V13.39H20.0513V12.442L20.7545 12.277V12.2771ZM23.1281 15.4648C23.1134 15.6454 23.1387 15.827 23.2023 15.997C23.2659 16.167 23.3662 16.3214 23.4964 16.4495C23.6265 16.5776 23.7833 16.6764 23.956 16.739C24.1287 16.8016 24.3131 16.8265 24.4965 16.8121C24.8675 16.8203 25.2361 16.7513 25.5783 16.6097L25.7027 17.1423C25.2828 17.3126 24.8314 17.3942 24.3775 17.3819C24.1129 17.3997 23.8475 17.361 23.5995 17.2684C23.3516 17.1757 23.1269 17.0314 22.9409 16.8452C22.7549 16.6591 22.612 16.4355 22.522 16.1898C22.432 15.9442 22.3971 15.6823 22.4196 15.4221C22.4196 14.2505 23.1281 13.3239 24.2856 13.3239C25.5836 13.3239 25.9082 14.4422 25.9082 15.1559C25.9151 15.2659 25.9151 15.3761 25.9082 15.4861H23.1119L23.1282 15.4648H23.1281ZM25.2484 14.9322C25.2693 14.7898 25.2589 14.6447 25.218 14.5066C25.1771 14.3684 25.1066 14.2406 25.0113 14.1316C24.9159 14.0225 24.798 13.9349 24.6653 13.8746C24.5327 13.8143 24.3884 13.7827 24.2423 13.7819C23.9451 13.8031 23.6667 13.9328 23.4616 14.1456C23.2565 14.3584 23.1395 14.6389 23.1335 14.9322H25.2484ZM27.0078 14.6053C27.0078 14.1473 27.0078 13.7533 26.9753 13.3911H27.6244V14.1527H27.6569C27.7251 13.9177 27.8658 13.7093 28.0597 13.5566C28.2535 13.4039 28.4908 13.3145 28.7387 13.3006C28.8069 13.2918 28.876 13.2918 28.9442 13.3006V13.9663C28.8616 13.9569 28.7781 13.9569 28.6954 13.9663C28.4499 13.9756 28.2162 14.0727 28.038 14.2393C27.8598 14.4059 27.7494 14.6306 27.7272 14.8716C27.707 14.9806 27.6961 15.091 27.6947 15.2018V17.2734H26.9808V14.6107L27.0078 14.6053V14.6053Z"
      fill="#4E4E4E" />
    <path
      d="M26.6903 2.6962C26.7125 3.05396 26.626 3.41012 26.4419 3.71933C26.2578 4.02853 25.9844 4.27678 25.6565 4.43245C25.3286 4.58812 24.9611 4.64417 24.6007 4.59345C24.2403 4.54273 23.9035 4.38754 23.633 4.14765C23.3625 3.90776 23.1707 3.59403 23.082 3.24642C22.9932 2.89882 23.0116 2.53307 23.1347 2.19577C23.2578 1.85846 23.4801 1.56488 23.7733 1.35241C24.0664 1.13994 24.4172 1.0182 24.7809 1.0027C25.0193 0.989764 25.2581 1.02337 25.4833 1.10159C25.7085 1.17981 25.9158 1.3011 26.0933 1.45849C26.2707 1.61587 26.4148 1.80625 26.5173 2.01866C26.6197 2.23107 26.6785 2.46134 26.6903 2.6962Z"
      fill="#767677" />
    <path
      d="M15.9952 23.5541C11.1273 23.5541 6.84902 21.834 4.63689 19.2937C5.49524 21.5789 7.044 23.5504 9.07472 24.9428C11.1054 26.3352 13.5206 27.0816 15.9952 27.0816C18.4698 27.0816 20.885 26.3352 22.9157 24.9428C24.9465 23.5504 26.4952 21.5789 27.3536 19.2937C25.1468 21.834 20.8848 23.5541 15.9952 23.5541V23.5541Z"
      fill="#F37726" />
    <path
      d="M15.9952 7.0354C20.8631 7.0354 25.1414 8.7556 27.3536 11.2958C26.4952 9.01056 24.9464 7.03909 22.9157 5.6467C20.885 4.25432 18.4698 3.50786 15.9952 3.5078C13.5206 3.5078 11.1054 4.25424 9.0747 5.64663C7.04398 7.03902 5.49522 9.01053 4.63689 11.2958C6.84902 8.7503 11.1058 7.0354 15.9952 7.0354V7.0354Z"
      fill="#F37726" />
    <path
      d="M9.29403 28.4975C9.32258 28.9481 9.21423 29.3969 8.9828 29.7867C8.75137 30.1765 8.40732 30.4897 7.99449 30.6862C7.58167 30.8828 7.11875 30.954 6.66472 30.8906C6.2107 30.8272 5.78611 30.6321 5.44507 30.3303C5.10402 30.0285 4.86195 29.6335 4.7497 29.1957C4.63745 28.7579 4.66011 28.2972 4.81477 27.8721C4.96944 27.447 5.24912 27.0769 5.61818 26.809C5.98724 26.541 6.42897 26.3872 6.8871 26.3673C7.18721 26.3515 7.48755 26.3941 7.77095 26.4926C8.05435 26.5911 8.31527 26.7436 8.53878 26.9414C8.7623 27.1392 8.94405 27.3785 9.07363 27.6455C9.20322 27.9125 9.27811 28.202 9.29403 28.4975V28.4975Z"
      fill="#9E9E9E" />
    <path
      d="M5.1901 6.4565C4.92777 6.46366 4.66914 6.39428 4.44675 6.25709C4.22436 6.11991 4.04813 5.92103 3.94023 5.68549C3.83233 5.44994 3.79758 5.18824 3.84034 4.9333C3.88311 4.67836 4.00148 4.44156 4.18057 4.25268C4.35966 4.06381 4.59148 3.93129 4.84686 3.8718C5.10225 3.81231 5.36979 3.8285 5.61586 3.91833C5.86192 4.00817 6.07551 4.16764 6.22976 4.37668C6.38402 4.58573 6.47205 4.83502 6.48279 5.0932C6.49304 5.44225 6.36304 5.7812 6.12102 6.03645C5.87899 6.29169 5.54447 6.44263 5.1901 6.4565V6.4565Z"
      fill="#616262" />
  </g>
  <defs>
    <clipPath id="clip0_864_208">
      <rect width="26" height="30" fill="white" transform="translate(3 1)" />
    </clipPath>
  </defs>
</svg>
