<svg viewBox="0 0 32 32" fill="none" xmlns="http://www.w3.org/2000/svg">
  <path
    d="M17.8003 6.29861V10.5977L25.2002 14.8969V10.5977L17.8004 6.29861H17.8003ZM3 10.5977V14.8969L6.69992 17.0459V12.7473L3 10.5977ZM14.0999 12.7473L10.3999 14.8968V27.7931L14.0999 29.9427V21.3449L17.8003 23.4945V19.1954L14.0999 17.0459V12.7473Z"
    fill="#E55B2D" />
  <path
    d="M17.8003 6.29861L6.69992 12.7473V17.0459L14.0999 12.7473V17.0459L17.8003 14.8969V6.29861V6.29861ZM28.9007 8.44818L25.2002 10.5977V14.8969L28.9007 12.7473V8.44818ZM21.5003 17.0459L17.8004 19.1955V23.4946L21.5003 21.3449V17.0458V17.0459ZM17.8004 23.4945L14.0999 21.3449V29.9427L17.8003 27.7931V23.4946L17.8004 23.4945Z"
    fill="#ED8E24" />
  <path
    d="M17.8003 2L3 10.5977L6.69992 12.7473L17.8003 6.29861L25.2002 10.5977L28.9007 8.44817L17.8003 2ZM17.8003 14.8968L14.0999 17.0458L17.8003 19.1955L21.5002 17.0459L17.8003 14.8969V14.8968Z"
    fill="#F8BF3C" />
</svg>
